<?xml version="1.0" encoding="UTF-8" standalone="no"?>
<svg
   width="687"
   height="200"
   viewBox="0 0 687 200"
   fill="none"
   version="1.1"
   id="svg24"
   sodipodi:docname="UltiMaker.svg"
   inkscape:version="1.1.2 (0a00cf5339, 2022-02-04)"
   xmlns:inkscape="http://www.inkscape.org/namespaces/inkscape"
   xmlns:sodipodi="http://sodipodi.sourceforge.net/DTD/sodipodi-0.dtd"
   xmlns="http://www.w3.org/2000/svg"
   xmlns:svg="http://www.w3.org/2000/svg">
  <defs
     id="defs28" />
  <sodipodi:namedview
     id="namedview26"
     pagecolor="#ffffff"
     bordercolor="#666666"
     borderopacity="1.0"
     inkscape:pageshadow="2"
     inkscape:pageopacity="0.0"
     inkscape:pagecheckerboard="0"
     showgrid="false"
     inkscape:zoom="1.790393"
     inkscape:cx="306.63659"
     inkscape:cy="99.978049"
     inkscape:window-width="1920"
     inkscape:window-height="1127"
     inkscape:window-x="1920"
     inkscape:window-y="0"
     inkscape:window-maximized="1"
     inkscape:current-layer="svg24" />
  <path
     d="m 170.6832,85.5244 h 9.0926 c 4.1848,0 7.5772,-3.39 7.5772,-7.571 v -11.072 c 0,-4.181 -3.3924,-7.571 -7.5772,-7.571 h -9.0926 c -4.1848,0 -7.5772,3.39 -7.5772,7.571 v 11.072 c 0,4.181 3.3924,7.571 7.5772,7.571 z"
     fill="#100aed"
     id="path2" />
  <path
     d="m 73.7887,85.5244 h 9.093 c 4.167,0 7.577,3.407 7.577,7.571 v 41.3555 c 0,4.1639 3.41,7.5708 7.577,7.5708 h 9.093 c 4.167,0 7.577,-3.4069 7.577,-7.5708 V 93.0954 c 0,-4.164 3.41,-7.524 7.577,-7.524 h 9.093 c 4.168,0 7.577,3.407 7.577,7.571 v 41.3558 c 0,4.164 3.41,7.5708 7.578,7.5708 h 9.0922 c 4.1674,0 7.5772,-3.4068 7.5772,-7.5708 V 93.1424 c 0,-4.164 -3.4098,-7.571 -7.5772,-7.571 h -9.0922 c -4.168,0 -7.578,-3.407 -7.578,-7.571 v -11.072 c 0,-4.164 -3.409,-7.571 -7.577,-7.571 h -9.093 c -4.167,0 -7.577,3.407 -7.577,7.571 v 11.12 c 0,4.164 -3.41,7.571 -7.577,7.571 h -9.093 c -4.167,0 -7.577,-3.407 -7.577,-7.571 v -11.073 c 0,-4.164 -3.41,-7.571 -7.577,-7.571 h -9.093 c -4.167,0 -7.577,3.407 -7.577,7.571 v 11.073 c 0,4.164 3.41,7.571 7.577,7.571 z"
     fill="#100aed"
     id="path4" />
</svg>
